<mxfile host="Electron" modified="2023-11-23T07:33:56.687Z" agent="Mozilla/5.0 (Windows NT 10.0; Win64; x64) AppleWebKit/537.36 (KHTML, like Gecko) draw.io/21.6.1 Chrome/112.0.5615.204 Electron/24.6.1 Safari/537.36" etag="VWG0opIXaZazofTe3LBz" version="21.6.1" type="device">
  <diagram name="第 1 页" id="5KSprpMwUYVPSRvnmA9z">
    <mxGraphModel dx="1062" dy="625" grid="0" gridSize="3.9369999999999994" guides="1" tooltips="1" connect="1" arrows="1" fold="1" page="1" pageScale="1" pageWidth="1654" pageHeight="1169" background="#E6E6E6" math="0" shadow="0">
      <root>
        <mxCell id="0" />
        <mxCell id="1" parent="0" />
        <mxCell id="JexUMbqz_i8q1vHDtlvt-3" value="" style="rounded=0;whiteSpace=wrap;html=1;" vertex="1" parent="1">
          <mxGeometry x="1044" y="214.1" width="80" height="13" as="geometry" />
        </mxCell>
        <mxCell id="EGFDkehEQVp23pimZ-VM-83" value="" style="endArrow=none;html=1;rounded=0;strokeWidth=3;opacity=50;strokeColor=#00FF00;" parent="1" edge="1">
          <mxGeometry width="50" height="50" relative="1" as="geometry">
            <mxPoint x="1044" y="179.1" as="sourcePoint" />
            <mxPoint x="1007" y="210.1" as="targetPoint" />
          </mxGeometry>
        </mxCell>
        <mxCell id="EGFDkehEQVp23pimZ-VM-87" value="" style="endArrow=none;html=1;rounded=0;strokeWidth=3;opacity=50;strokeColor=#00FF00;" parent="1" edge="1">
          <mxGeometry width="50" height="50" relative="1" as="geometry">
            <mxPoint x="1124" y="179.1" as="sourcePoint" />
            <mxPoint x="1044" y="179.1" as="targetPoint" />
          </mxGeometry>
        </mxCell>
        <mxCell id="EGFDkehEQVp23pimZ-VM-86" value="" style="endArrow=none;html=1;rounded=0;strokeWidth=3;opacity=50;strokeColor=#00FF00;" parent="1" edge="1">
          <mxGeometry width="50" height="50" relative="1" as="geometry">
            <mxPoint x="1160" y="210.1" as="sourcePoint" />
            <mxPoint x="1124" y="179.1" as="targetPoint" />
          </mxGeometry>
        </mxCell>
        <mxCell id="EGFDkehEQVp23pimZ-VM-84" value="" style="endArrow=none;html=1;rounded=0;strokeWidth=3;opacity=50;strokeColor=#00FF00;" parent="1" edge="1">
          <mxGeometry width="50" height="50" relative="1" as="geometry">
            <mxPoint x="1159" y="230.1" as="sourcePoint" />
            <mxPoint x="1124" y="259.1" as="targetPoint" />
          </mxGeometry>
        </mxCell>
        <mxCell id="EGFDkehEQVp23pimZ-VM-88" value="" style="endArrow=none;html=1;rounded=0;strokeWidth=3;opacity=50;strokeColor=#00FF00;" parent="1" edge="1">
          <mxGeometry width="50" height="50" relative="1" as="geometry">
            <mxPoint x="1124.0025" y="258.6025000000001" as="sourcePoint" />
            <mxPoint x="1044.0075000000002" y="259.10749999999996" as="targetPoint" />
          </mxGeometry>
        </mxCell>
        <mxCell id="EGFDkehEQVp23pimZ-VM-85" value="" style="endArrow=none;html=1;rounded=0;strokeWidth=3;opacity=50;strokeColor=#00FF00;" parent="1" edge="1">
          <mxGeometry width="50" height="50" relative="1" as="geometry">
            <mxPoint x="1044" y="259.1" as="sourcePoint" />
            <mxPoint x="1007" y="230.1" as="targetPoint" />
          </mxGeometry>
        </mxCell>
        <mxCell id="EGFDkehEQVp23pimZ-VM-80" value="" style="endArrow=none;html=1;rounded=0;strokeWidth=3;opacity=50;strokeColor=#00FF00;" parent="1" edge="1">
          <mxGeometry width="50" height="50" relative="1" as="geometry">
            <mxPoint x="957" y="230.1" as="sourcePoint" />
            <mxPoint x="1233" y="230.1" as="targetPoint" />
          </mxGeometry>
        </mxCell>
        <mxCell id="EGFDkehEQVp23pimZ-VM-79" value="" style="endArrow=none;html=1;rounded=0;strokeColor=#00FF00;opacity=50;strokeWidth=3;" parent="1" edge="1">
          <mxGeometry width="50" height="50" relative="1" as="geometry">
            <mxPoint x="957" y="210.1" as="sourcePoint" />
            <mxPoint x="1233" y="210.1" as="targetPoint" />
          </mxGeometry>
        </mxCell>
        <mxCell id="EGFDkehEQVp23pimZ-VM-1" value="" style="endArrow=none;html=1;rounded=0;" parent="1" edge="1">
          <mxGeometry width="50" height="50" relative="1" as="geometry">
            <mxPoint x="1044" y="179.1" as="sourcePoint" />
            <mxPoint x="1124" y="179.1" as="targetPoint" />
          </mxGeometry>
        </mxCell>
        <mxCell id="EGFDkehEQVp23pimZ-VM-2" value="" style="endArrow=none;html=1;rounded=0;" parent="1" edge="1">
          <mxGeometry width="50" height="50" relative="1" as="geometry">
            <mxPoint x="1044" y="209.92999999999992" as="sourcePoint" />
            <mxPoint x="1124" y="209.92999999999992" as="targetPoint" />
          </mxGeometry>
        </mxCell>
        <mxCell id="EGFDkehEQVp23pimZ-VM-3" value="" style="endArrow=none;html=1;rounded=0;" parent="1" edge="1">
          <mxGeometry width="50" height="50" relative="1" as="geometry">
            <mxPoint x="1044" y="230.1" as="sourcePoint" />
            <mxPoint x="1124" y="230.1" as="targetPoint" />
          </mxGeometry>
        </mxCell>
        <mxCell id="EGFDkehEQVp23pimZ-VM-4" value="" style="endArrow=none;html=1;rounded=0;" parent="1" edge="1">
          <mxGeometry width="50" height="50" relative="1" as="geometry">
            <mxPoint x="1044" y="259.11" as="sourcePoint" />
            <mxPoint x="1124" y="259.11" as="targetPoint" />
          </mxGeometry>
        </mxCell>
        <mxCell id="EGFDkehEQVp23pimZ-VM-6" value="" style="rounded=0;whiteSpace=wrap;html=1;" parent="1" vertex="1">
          <mxGeometry x="1044" y="149.73999999999998" width="80" height="24.26" as="geometry" />
        </mxCell>
        <mxCell id="EGFDkehEQVp23pimZ-VM-7" value="" style="rounded=0;whiteSpace=wrap;html=1;" parent="1" vertex="1">
          <mxGeometry x="1044" y="264.11" width="80" height="23.43" as="geometry" />
        </mxCell>
        <mxCell id="EGFDkehEQVp23pimZ-VM-8" value="" style="endArrow=none;html=1;rounded=0;" parent="1" edge="1">
          <mxGeometry width="50" height="50" relative="1" as="geometry">
            <mxPoint x="1124" y="179.1" as="sourcePoint" />
            <mxPoint x="1160" y="210.1" as="targetPoint" />
          </mxGeometry>
        </mxCell>
        <mxCell id="EGFDkehEQVp23pimZ-VM-9" value="" style="endArrow=none;html=1;rounded=0;" parent="1" edge="1">
          <mxGeometry width="50" height="50" relative="1" as="geometry">
            <mxPoint x="1124" y="230.1" as="sourcePoint" />
            <mxPoint x="1194" y="230.1" as="targetPoint" />
          </mxGeometry>
        </mxCell>
        <mxCell id="EGFDkehEQVp23pimZ-VM-10" value="" style="endArrow=none;html=1;rounded=0;" parent="1" edge="1">
          <mxGeometry width="50" height="50" relative="1" as="geometry">
            <mxPoint x="1124" y="259.1" as="sourcePoint" />
            <mxPoint x="1159" y="230.1" as="targetPoint" />
          </mxGeometry>
        </mxCell>
        <mxCell id="EGFDkehEQVp23pimZ-VM-11" value="" style="endArrow=none;html=1;rounded=0;" parent="1" edge="1">
          <mxGeometry width="50" height="50" relative="1" as="geometry">
            <mxPoint x="1124" y="210.1" as="sourcePoint" />
            <mxPoint x="1194" y="210.1" as="targetPoint" />
          </mxGeometry>
        </mxCell>
        <mxCell id="EGFDkehEQVp23pimZ-VM-12" value="" style="endArrow=none;html=1;rounded=0;" parent="1" edge="1">
          <mxGeometry width="50" height="50" relative="1" as="geometry">
            <mxPoint x="1194" y="210.1" as="sourcePoint" />
            <mxPoint x="1264" y="210.1" as="targetPoint" />
          </mxGeometry>
        </mxCell>
        <mxCell id="EGFDkehEQVp23pimZ-VM-13" value="" style="endArrow=none;html=1;rounded=0;" parent="1" edge="1">
          <mxGeometry width="50" height="50" relative="1" as="geometry">
            <mxPoint x="1194" y="230.1" as="sourcePoint" />
            <mxPoint x="1264" y="230.1" as="targetPoint" />
          </mxGeometry>
        </mxCell>
        <mxCell id="EGFDkehEQVp23pimZ-VM-26" value="" style="endArrow=none;html=1;rounded=0;" parent="1" edge="1">
          <mxGeometry width="50" height="50" relative="1" as="geometry">
            <mxPoint x="574" y="230.1" as="sourcePoint" />
            <mxPoint x="1044" y="230.1" as="targetPoint" />
          </mxGeometry>
        </mxCell>
        <mxCell id="EGFDkehEQVp23pimZ-VM-25" value="" style="endArrow=none;html=1;rounded=0;" parent="1" edge="1">
          <mxGeometry width="50" height="50" relative="1" as="geometry">
            <mxPoint x="573.6666666666666" y="210.1" as="sourcePoint" />
            <mxPoint x="1044" y="210.1" as="targetPoint" />
          </mxGeometry>
        </mxCell>
        <mxCell id="EGFDkehEQVp23pimZ-VM-27" value="" style="endArrow=none;html=1;rounded=0;" parent="1" edge="1">
          <mxGeometry width="50" height="50" relative="1" as="geometry">
            <mxPoint x="1007" y="230.1" as="sourcePoint" />
            <mxPoint x="1044" y="259.1" as="targetPoint" />
          </mxGeometry>
        </mxCell>
        <mxCell id="EGFDkehEQVp23pimZ-VM-28" value="" style="endArrow=none;html=1;rounded=0;" parent="1" edge="1">
          <mxGeometry width="50" height="50" relative="1" as="geometry">
            <mxPoint x="1007" y="210.1" as="sourcePoint" />
            <mxPoint x="1044" y="179.1" as="targetPoint" />
          </mxGeometry>
        </mxCell>
        <mxCell id="EGFDkehEQVp23pimZ-VM-31" value="" style="endArrow=none;html=1;rounded=0;" parent="1" edge="1">
          <mxGeometry width="50" height="50" relative="1" as="geometry">
            <mxPoint x="364" y="210.1" as="sourcePoint" />
            <mxPoint x="574" y="210.1" as="targetPoint" />
          </mxGeometry>
        </mxCell>
        <mxCell id="EGFDkehEQVp23pimZ-VM-32" value="" style="endArrow=none;html=1;rounded=0;" parent="1" edge="1">
          <mxGeometry width="50" height="50" relative="1" as="geometry">
            <mxPoint x="364" y="230.1" as="sourcePoint" />
            <mxPoint x="574" y="230.1" as="targetPoint" />
          </mxGeometry>
        </mxCell>
        <mxCell id="EGFDkehEQVp23pimZ-VM-51" value="" style="endArrow=blockThin;html=1;rounded=0;endFill=1;" parent="1" edge="1">
          <mxGeometry width="50" height="50" relative="1" as="geometry">
            <mxPoint x="286" y="193.1" as="sourcePoint" />
            <mxPoint x="304.76" y="193.04999999999998" as="targetPoint" />
          </mxGeometry>
        </mxCell>
        <mxCell id="EGFDkehEQVp23pimZ-VM-71" value="" style="rounded=0;whiteSpace=wrap;html=1;" parent="1" vertex="1">
          <mxGeometry x="764" y="214.10999999999999" width="80" height="12.99" as="geometry" />
        </mxCell>
        <mxCell id="EGFDkehEQVp23pimZ-VM-72" value="" style="rounded=0;whiteSpace=wrap;html=1;" parent="1" vertex="1">
          <mxGeometry x="764" y="186.1" width="80" height="20" as="geometry" />
        </mxCell>
        <mxCell id="EGFDkehEQVp23pimZ-VM-74" value="" style="rounded=0;whiteSpace=wrap;html=1;" parent="1" vertex="1">
          <mxGeometry x="535.0024999999999" y="234.10250000000005" width="80" height="20" as="geometry" />
        </mxCell>
        <mxCell id="EGFDkehEQVp23pimZ-VM-75" value="" style="rounded=0;whiteSpace=wrap;html=1;" parent="1" vertex="1">
          <mxGeometry x="535.0024999999999" y="186.10250000000005" width="80" height="20" as="geometry" />
        </mxCell>
        <mxCell id="EGFDkehEQVp23pimZ-VM-76" value="" style="rounded=0;whiteSpace=wrap;html=1;" parent="1" vertex="1">
          <mxGeometry x="413.0049999999999" y="234.1050000000001" width="80" height="20" as="geometry" />
        </mxCell>
        <mxCell id="EGFDkehEQVp23pimZ-VM-77" value="" style="rounded=0;whiteSpace=wrap;html=1;" parent="1" vertex="1">
          <mxGeometry x="413.0049999999999" y="186.1050000000001" width="80" height="20" as="geometry" />
        </mxCell>
        <mxCell id="EGFDkehEQVp23pimZ-VM-91" value="" style="endArrow=none;html=1;rounded=0;strokeColor=#0000FF;opacity=50;strokeWidth=3;" parent="1" edge="1">
          <mxGeometry width="50" height="50" relative="1" as="geometry">
            <mxPoint x="1233" y="210.1" as="sourcePoint" />
            <mxPoint x="1263" y="210.1" as="targetPoint" />
          </mxGeometry>
        </mxCell>
        <mxCell id="EGFDkehEQVp23pimZ-VM-109" value="西人間の里" style="text;strokeColor=none;align=center;fillColor=none;html=1;verticalAlign=middle;whiteSpace=wrap;rounded=0;" parent="1" vertex="1">
          <mxGeometry x="1046.5" y="293.1" width="75" height="30" as="geometry" />
        </mxCell>
        <mxCell id="EGFDkehEQVp23pimZ-VM-110" value="命蓮寺&lt;font style=&quot;font-size: 10px;&quot;&gt;（二階建て）&lt;/font&gt;" style="text;strokeColor=none;align=center;fillColor=none;html=1;verticalAlign=middle;whiteSpace=wrap;rounded=0;" parent="1" vertex="1">
          <mxGeometry x="746" y="234.1" width="116" height="30" as="geometry" />
        </mxCell>
        <mxCell id="EGFDkehEQVp23pimZ-VM-111" value="北命蓮寺" style="text;strokeColor=none;align=center;fillColor=none;html=1;verticalAlign=middle;whiteSpace=wrap;rounded=0;" parent="1" vertex="1">
          <mxGeometry x="660.0042261904761" y="259.1061309523809" width="60" height="30" as="geometry" />
        </mxCell>
        <mxCell id="EGFDkehEQVp23pimZ-VM-112" value="妖怪の樹海" style="text;strokeColor=none;align=center;fillColor=none;html=1;verticalAlign=middle;whiteSpace=wrap;rounded=0;" parent="1" vertex="1">
          <mxGeometry x="542.5" y="259.11" width="65.01" height="30" as="geometry" />
        </mxCell>
        <mxCell id="EGFDkehEQVp23pimZ-VM-117" value="&lt;font style=&quot;font-size: 10px;&quot;&gt;人間の里・博麗神社方面&lt;/font&gt;" style="text;strokeColor=none;align=center;fillColor=none;html=1;verticalAlign=middle;whiteSpace=wrap;rounded=0;" parent="1" vertex="1">
          <mxGeometry x="1183" y="173.99999999999997" width="154" height="30" as="geometry" />
        </mxCell>
        <mxCell id="EGFDkehEQVp23pimZ-VM-120" value="&lt;font style=&quot;font-size: 60px;&quot;&gt;&lt;font style=&quot;font-size: 60px;&quot;&gt;幻想郷鉄道（人間の里ー守矢神社）配&lt;/font&gt;線略図&lt;/font&gt;" style="text;strokeColor=none;align=center;fillColor=none;html=1;verticalAlign=middle;whiteSpace=wrap;rounded=0;" parent="1" vertex="1">
          <mxGeometry x="41.510000000000005" y="22" width="1449" height="96" as="geometry" />
        </mxCell>
        <mxCell id="EGFDkehEQVp23pimZ-VM-121" value="①" style="text;strokeColor=none;align=center;fillColor=none;html=1;verticalAlign=middle;whiteSpace=wrap;rounded=0;" parent="1" vertex="1">
          <mxGeometry x="1046.5" y="269.33000000000004" width="15" height="13" as="geometry" />
        </mxCell>
        <mxCell id="EGFDkehEQVp23pimZ-VM-122" value="②" style="text;strokeColor=none;align=center;fillColor=none;html=1;verticalAlign=middle;whiteSpace=wrap;rounded=0;" parent="1" vertex="1">
          <mxGeometry x="1046.5" y="213.1" width="15" height="14" as="geometry" />
        </mxCell>
        <mxCell id="EGFDkehEQVp23pimZ-VM-123" value="③" style="text;strokeColor=none;align=center;fillColor=none;html=1;verticalAlign=middle;whiteSpace=wrap;rounded=0;" parent="1" vertex="1">
          <mxGeometry x="1059" y="213.1" width="18.01" height="13" as="geometry" />
        </mxCell>
        <mxCell id="EGFDkehEQVp23pimZ-VM-124" value="④" style="text;strokeColor=none;align=center;fillColor=none;html=1;verticalAlign=middle;whiteSpace=wrap;rounded=0;" parent="1" vertex="1">
          <mxGeometry x="1046.5" y="153.99999999999997" width="15.03" height="15.74" as="geometry" />
        </mxCell>
        <mxCell id="-fVv7rPrCd2kUO5Vlaj1-45" value="&lt;span style=&quot;font-size: 15px;&quot;&gt;&lt;b&gt;環状線&lt;/b&gt;&lt;/span&gt;" style="text;strokeColor=none;align=center;fillColor=none;html=1;verticalAlign=middle;whiteSpace=wrap;rounded=0;" parent="1" vertex="1">
          <mxGeometry x="1182.9969999999998" y="240.09700000000007" width="134" height="30" as="geometry" />
        </mxCell>
        <mxCell id="JexUMbqz_i8q1vHDtlvt-4" value="" style="rounded=0;whiteSpace=wrap;html=1;" vertex="1" parent="1">
          <mxGeometry x="649.9994999999999" y="186.10950000000005" width="80" height="20" as="geometry" />
        </mxCell>
        <mxCell id="JexUMbqz_i8q1vHDtlvt-5" value="" style="rounded=0;whiteSpace=wrap;html=1;" vertex="1" parent="1">
          <mxGeometry x="649.9994999999999" y="234.10950000000005" width="80" height="20" as="geometry" />
        </mxCell>
        <mxCell id="JexUMbqz_i8q1vHDtlvt-6" value="" style="rounded=0;whiteSpace=wrap;html=1;" vertex="1" parent="1">
          <mxGeometry x="263.44" y="197.1" width="78.56" height="20" as="geometry" />
        </mxCell>
        <mxCell id="JexUMbqz_i8q1vHDtlvt-7" value="" style="rounded=0;whiteSpace=wrap;html=1;" vertex="1" parent="1">
          <mxGeometry x="263.44" y="224.1" width="78.56" height="20" as="geometry" />
        </mxCell>
        <mxCell id="JexUMbqz_i8q1vHDtlvt-8" value="守矢神社" style="text;strokeColor=none;align=center;fillColor=none;html=1;verticalAlign=middle;whiteSpace=wrap;rounded=0;" vertex="1" parent="1">
          <mxGeometry x="266.22700000000003" y="259.10699999999997" width="72.99" height="30" as="geometry" />
        </mxCell>
        <mxCell id="JexUMbqz_i8q1vHDtlvt-9" value="草田" style="text;html=1;align=center;verticalAlign=middle;resizable=0;points=[];autosize=1;strokeColor=none;fillColor=none;" vertex="1" parent="1">
          <mxGeometry x="430" y="262.1" width="42" height="26" as="geometry" />
        </mxCell>
        <mxCell id="JexUMbqz_i8q1vHDtlvt-10" value="" style="endArrow=none;html=1;rounded=0;strokeColor=#0000FF;opacity=50;strokeWidth=3;" edge="1" parent="1">
          <mxGeometry width="50" height="50" relative="1" as="geometry">
            <mxPoint x="1232.9969999999998" y="230.097" as="sourcePoint" />
            <mxPoint x="1262.9969999999998" y="230.097" as="targetPoint" />
          </mxGeometry>
        </mxCell>
        <mxCell id="JexUMbqz_i8q1vHDtlvt-11" value="" style="endArrow=blockThin;html=1;rounded=0;endFill=1;" edge="1" parent="1">
          <mxGeometry width="50" height="50" relative="1" as="geometry">
            <mxPoint x="1263" y="230.1" as="sourcePoint" />
            <mxPoint x="1221.5" y="230.1" as="targetPoint" />
          </mxGeometry>
        </mxCell>
        <mxCell id="JexUMbqz_i8q1vHDtlvt-12" value="" style="endArrow=blockThin;html=1;rounded=0;endFill=1;" edge="1" parent="1">
          <mxGeometry width="50" height="50" relative="1" as="geometry">
            <mxPoint x="1214" y="210.1" as="sourcePoint" />
            <mxPoint x="1233" y="210.1" as="targetPoint" />
          </mxGeometry>
        </mxCell>
        <mxCell id="JexUMbqz_i8q1vHDtlvt-15" value="" style="endArrow=none;html=1;rounded=0;" edge="1" parent="1">
          <mxGeometry width="50" height="50" relative="1" as="geometry">
            <mxPoint x="263" y="193.1" as="sourcePoint" />
            <mxPoint x="364" y="210.1" as="targetPoint" />
            <Array as="points">
              <mxPoint x="342" y="193.1" />
            </Array>
          </mxGeometry>
        </mxCell>
        <mxCell id="JexUMbqz_i8q1vHDtlvt-16" value="" style="endArrow=none;html=1;rounded=0;" edge="1" parent="1">
          <mxGeometry width="50" height="50" relative="1" as="geometry">
            <mxPoint x="263" y="248.1" as="sourcePoint" />
            <mxPoint x="364.62" y="230.1" as="targetPoint" />
            <Array as="points">
              <mxPoint x="342" y="248.1" />
            </Array>
          </mxGeometry>
        </mxCell>
        <mxCell id="JexUMbqz_i8q1vHDtlvt-17" value="" style="endArrow=none;html=1;rounded=0;" edge="1" parent="1">
          <mxGeometry width="50" height="50" relative="1" as="geometry">
            <mxPoint x="185" y="221.1" as="sourcePoint" />
            <mxPoint x="365" y="230.1" as="targetPoint" />
            <Array as="points">
              <mxPoint x="354" y="221.1" />
            </Array>
          </mxGeometry>
        </mxCell>
        <mxCell id="JexUMbqz_i8q1vHDtlvt-18" value="" style="endArrow=none;html=1;rounded=0;" edge="1" parent="1">
          <mxGeometry width="50" height="50" relative="1" as="geometry">
            <mxPoint x="354" y="221.1" as="sourcePoint" />
            <mxPoint x="364" y="210.1" as="targetPoint" />
          </mxGeometry>
        </mxCell>
        <mxCell id="JexUMbqz_i8q1vHDtlvt-19" value="" style="endArrow=none;html=1;rounded=0;" edge="1" parent="1">
          <mxGeometry width="50" height="50" relative="1" as="geometry">
            <mxPoint x="236" y="221.1" as="sourcePoint" />
            <mxPoint x="263" y="193.1" as="targetPoint" />
          </mxGeometry>
        </mxCell>
        <mxCell id="JexUMbqz_i8q1vHDtlvt-20" value="" style="endArrow=none;html=1;rounded=0;" edge="1" parent="1">
          <mxGeometry width="50" height="50" relative="1" as="geometry">
            <mxPoint x="263" y="248.1" as="sourcePoint" />
            <mxPoint x="236" y="221.1" as="targetPoint" />
          </mxGeometry>
        </mxCell>
        <mxCell id="JexUMbqz_i8q1vHDtlvt-21" value="" style="endArrow=block;startArrow=block;html=1;rounded=0;startFill=1;endFill=1;" edge="1" parent="1">
          <mxGeometry width="50" height="50" relative="1" as="geometry">
            <mxPoint x="192.57" y="220.53" as="sourcePoint" />
            <mxPoint x="215.57" y="220.53" as="targetPoint" />
          </mxGeometry>
        </mxCell>
        <mxCell id="JexUMbqz_i8q1vHDtlvt-22" value="" style="endArrow=blockThin;html=1;rounded=0;endFill=1;" edge="1" parent="1">
          <mxGeometry width="50" height="50" relative="1" as="geometry">
            <mxPoint x="310.38699999999994" y="248.097" as="sourcePoint" />
            <mxPoint x="295.05" y="248.10999999999999" as="targetPoint" />
          </mxGeometry>
        </mxCell>
        <mxCell id="JexUMbqz_i8q1vHDtlvt-23" value="" style="endArrow=blockThin;startArrow=blockThin;html=1;rounded=0;startFill=1;endFill=1;" edge="1" parent="1">
          <mxGeometry width="50" height="50" relative="1" as="geometry">
            <mxPoint x="288.997" y="220.547" as="sourcePoint" />
            <mxPoint x="311.99699999999996" y="220.547" as="targetPoint" />
          </mxGeometry>
        </mxCell>
        <mxCell id="JexUMbqz_i8q1vHDtlvt-24" value="" style="endArrow=none;html=1;rounded=0;" edge="1" parent="1">
          <mxGeometry width="50" height="50" relative="1" as="geometry">
            <mxPoint x="908" y="210.1" as="sourcePoint" />
            <mxPoint x="928" y="230.1" as="targetPoint" />
          </mxGeometry>
        </mxCell>
        <mxCell id="JexUMbqz_i8q1vHDtlvt-25" value="" style="endArrow=none;html=1;rounded=0;" edge="1" parent="1">
          <mxGeometry width="50" height="50" relative="1" as="geometry">
            <mxPoint x="885" y="146.1" as="sourcePoint" />
            <mxPoint x="901" y="210.1" as="targetPoint" />
            <Array as="points">
              <mxPoint x="885" y="193.1" />
            </Array>
          </mxGeometry>
        </mxCell>
        <mxCell id="JexUMbqz_i8q1vHDtlvt-26" value="" style="endArrow=block;html=1;rounded=0;endFill=1;" edge="1" parent="1">
          <mxGeometry width="50" height="50" relative="1" as="geometry">
            <mxPoint x="911" y="213" as="sourcePoint" />
            <mxPoint x="924" y="226" as="targetPoint" />
          </mxGeometry>
        </mxCell>
        <mxCell id="JexUMbqz_i8q1vHDtlvt-27" value="&lt;font style=&quot;font-size: 10px;&quot;&gt;人里車両センター方面&lt;/font&gt;" style="text;strokeColor=none;align=center;fillColor=none;html=1;verticalAlign=middle;whiteSpace=wrap;rounded=0;" vertex="1" parent="1">
          <mxGeometry x="881.55" y="133.99999999999997" width="122.04" height="30" as="geometry" />
        </mxCell>
        <mxCell id="JexUMbqz_i8q1vHDtlvt-28" value="&lt;font style=&quot;font-size: 10px;&quot;&gt;①（2階）&lt;/font&gt;" style="text;strokeColor=none;align=center;fillColor=none;html=1;verticalAlign=middle;whiteSpace=wrap;rounded=0;" vertex="1" parent="1">
          <mxGeometry x="764" y="213.6" width="50" height="13" as="geometry" />
        </mxCell>
        <mxCell id="JexUMbqz_i8q1vHDtlvt-29" value="&lt;font style=&quot;font-size: 10px;&quot;&gt;②（1階）&lt;/font&gt;" style="text;strokeColor=none;align=center;fillColor=none;html=1;verticalAlign=middle;whiteSpace=wrap;rounded=0;" vertex="1" parent="1">
          <mxGeometry x="763.997" y="189.597" width="50" height="13" as="geometry" />
        </mxCell>
        <mxCell id="JexUMbqz_i8q1vHDtlvt-30" value="" style="endArrow=none;html=1;rounded=0;strokeWidth=3;opacity=50;strokeColor=#00FF00;" edge="1" parent="1">
          <mxGeometry width="50" height="50" relative="1" as="geometry">
            <mxPoint x="744.4970000000001" y="229.997" as="sourcePoint" />
            <mxPoint x="863.5" y="230" as="targetPoint" />
          </mxGeometry>
        </mxCell>
        <mxCell id="JexUMbqz_i8q1vHDtlvt-31" value="" style="endArrow=blockThin;startArrow=blockThin;html=1;rounded=0;startFill=1;endFill=1;" edge="1" parent="1">
          <mxGeometry width="50" height="50" relative="1" as="geometry">
            <mxPoint x="885" y="174.74" as="sourcePoint" />
            <mxPoint x="885" y="149.74" as="targetPoint" />
          </mxGeometry>
        </mxCell>
      </root>
    </mxGraphModel>
  </diagram>
</mxfile>
